# xmcd CD database file
#
# Track frame offsets:
#	150
#	17575
#	39998
#	66389
#	88480
#	115940
#	140430
#	167051
#	185241
#	211682
#	231529
#	252625
#
# Disc length: 3635 seconds
#
# Revision: 0
# Processed by: cddbd v1.5.2PL0 Copyright (c) Steve Scherf et al.
# Submitted via: CDex 1.70beta2
#
DISCID=b40e310c
DTITLE=Randy Porter Trio - Brio
DYEAR=2004
DGENRE=Jazz
TTITLE0=Brio
TTITLE1=Anything Goes
TTITLE2=Julian 
TTITLE3=Three Strands
TTITLE4=Night and Day
TTITLE5=I'll be Around
TTITLE6=Weird Weather
TTITLE7=Sirius
TTITLE8=Green Dolphin Street
TTITLE9=Baby, Baby all the Time
TTITLE10=Relaxin' at the Camarrillo
TTITLE11=Tadd's Delight
EXTD=YEAR: 2004
EXTT0=
EXTT1=
EXTT2=
EXTT3=
EXTT4=
EXTT5=
EXTT6=
EXTT7=
EXTT8=
EXTT9=
EXTT10=
EXTT11=
PLAYORDER=
